<?xml version="1.0" standalone="no"?>
<!DOCTYPE svg PUBLIC "-//W3C//DTD SVG 20010904//EN"
 "http://www.w3.org/TR/2001/REC-SVG-20010904/DTD/svg10.dtd">
<svg version="1.0" xmlns="http://www.w3.org/2000/svg"
 width="700.000000pt" height="700.000000pt" viewBox="0 0 700.000000 700.000000"
 preserveAspectRatio="xMidYMid meet">
<metadata>
Created by potrace 1.11, written by Peter Selinger 2001-2013
</metadata>
<g transform="translate(0.000000,700.000000) scale(0.100000,-0.100000)"
fill="#000000" stroke="none">
<path d="M6095 5598 c-93 -15 -186 -30 -205 -33 -20 -3 -45 -7 -57 -9 -11 -3
-36 -7 -54 -10 -19 -3 -146 -23 -284 -46 -137 -22 -275 -44 -305 -50 -30 -5
-73 -12 -95 -15 -22 -3 -62 -10 -90 -15 -27 -5 -66 -11 -85 -14 -39 -6 -578
-94 -625 -102 -16 -3 -41 -7 -55 -9 -14 -2 -38 -6 -55 -9 -16 -2 -75 -12 -130
-21 -55 -9 -113 -18 -130 -21 -111 -19 -334 -56 -355 -59 -14 -2 -97 -16 -185
-30 -88 -15 -171 -28 -185 -30 -14 -2 -38 -6 -55 -9 -16 -3 -129 -21 -250 -41
-121 -20 -231 -38 -245 -40 -14 -2 -110 -18 -215 -35 -104 -17 -199 -32 -210
-34 -40 -8 -91 -16 -130 -21 -22 -3 -80 -12 -130 -21 -49 -8 -103 -17 -120
-20 -16 -2 -41 -6 -55 -9 -27 -5 -26 -5 -215 -35 -71 -12 -141 -23 -155 -26
-14 -2 -56 -9 -95 -15 -38 -6 -81 -12 -95 -15 -14 -2 -41 -7 -60 -10 -19 -2
-57 -9 -85 -14 -27 -5 -68 -12 -90 -15 -145 -21 -408 -68 -449 -80 -97 -30
-172 -87 -229 -176 -50 -79 -61 -122 -62 -230 0 -90 2 -99 37 -170 43 -86 93
-138 218 -225 52 -35 429 -302 540 -381 41 -29 84 -60 95 -68 11 -7 85 -60
165 -116 80 -56 179 -126 220 -155 41 -29 80 -57 85 -62 6 -5 22 -16 36 -25
28 -18 40 -15 214 63 56 25 559 243 685 297 57 25 125 54 150 65 53 24 40 18
340 148 129 56 250 108 268 116 17 8 47 20 65 28 17 8 52 23 77 34 25 11 144
63 265 115 207 89 1149 497 1244 538 24 10 46 19 49 19 3 0 -98 -64 -224 -141
-126 -78 -291 -181 -367 -228 -75 -47 -145 -90 -155 -96 -30 -17 -95 -57 -147
-91 -43 -27 -538 -334 -995 -616 -80 -50 -161 -100 -180 -113 -57 -36 -223
-139 -243 -150 -23 -13 -472 -292 -514 -320 l-32 -21 70 -50 c64 -45 149 -105
191 -136 10 -7 62 -44 115 -81 118 -83 740 -521 768 -541 15 -11 246 -173 335
-236 8 -5 47 -33 85 -60 39 -27 78 -55 89 -62 10 -7 28 -20 40 -29 155 -115
221 -147 318 -155 161 -13 317 68 405 209 14 23 35 58 48 77 12 19 85 136 162
260 172 277 662 1063 1089 1747 387 622 472 759 564 909 8 13 72 115 141 227
133 213 157 255 162 284 1 10 5 23 8 28 11 20 7 145 -7 198 -37 142 -141 249
-287 297 -67 21 -174 18 -352 -12z"/>
<path d="M2139 2448 c-1 -17 -1 -575 0 -610 l1 -28 238 119 c130 65 252 126
270 135 l34 17 -124 87 c-67 48 -133 94 -144 102 -12 8 -73 51 -135 95 -142
101 -139 99 -140 83z"/>
</g>
</svg>
